<svg width="51" height="30" viewBox="0 0 51 30" fill="none" xmlns="http://www.w3.org/2000/svg">
<path d="M7.00006 21.6001V26.4001" stroke="#59008F" stroke-width="2.6" stroke-linecap="round" stroke-linejoin="round"/>
<path d="M25.6734 16.8V7.2C25.6734 5.43269 27.3454 4 29.4081 4H36.8774C38.9401 4 40.6121 5.43269 40.6121 7.2V10.4" stroke="#59008F" stroke-width="2.6" stroke-linecap="round" stroke-linejoin="round"/>
<path d="M25.6734 16.8V7.2C25.6734 5.43269 24.0014 4 21.9387 4H14.4694C12.4068 4 10.7347 5.43269 10.7347 7.2V10.4" stroke="#59008F" stroke-width="2.6" stroke-linecap="round" stroke-linejoin="round"/>
<path d="M40.6121 10.3999C38.5494 10.3999 36.8774 11.8326 36.8774 13.5999V16.7999H14.4694V13.5999C14.4694 11.8326 12.7973 10.3999 10.7347 10.3999C8.67213 10.3999 7.00006 11.8326 7.00006 13.5999V23.1999H44.3467V13.5999C44.3467 11.8326 42.6747 10.3999 40.6121 10.3999Z" stroke="#59008F" stroke-width="2.6" stroke-linecap="round" stroke-linejoin="round"/>
<path d="M44.3467 21.6001V26.4001" stroke="#59008F" stroke-width="2.6" stroke-linecap="round" stroke-linejoin="round"/>
</svg>
