<svg width="19" height="19" viewBox="0 0 19 19" fill="none" xmlns="http://www.w3.org/2000/svg">
<path d="M15.4666 3.40003H3.73328C3.1498 3.40003 2.59022 3.63182 2.17764 4.0444C1.76506 4.45698 1.53328 5.01656 1.53328 5.60003V12.9334C1.53328 13.5168 1.76506 14.0764 2.17764 14.489C2.59022 14.9016 3.1498 15.1334 3.73328 15.1334H15.4666C16.0501 15.1334 16.6097 14.9016 17.0222 14.489C17.4348 14.0764 17.6666 13.5168 17.6666 12.9334V5.60003C17.6666 5.01656 17.4348 4.45698 17.0222 4.0444C16.6097 3.63182 16.0501 3.40003 15.4666 3.40003ZM16.1999 12.75L12.6066 9.52337L16.1999 7.00803V12.75ZM2.99994 7.00803L6.59328 9.52337L2.99994 12.75V7.00803ZM7.82527 10.3887L9.18194 11.3347C9.3047 11.4199 9.45054 11.4655 9.59994 11.4655C9.74934 11.4655 9.89518 11.4199 10.0179 11.3347L11.3746 10.3887L15.0413 13.6667H4.17328L7.82527 10.3887ZM3.73328 4.8667H15.4666C15.6028 4.86779 15.736 4.90679 15.8513 4.97932C15.9666 5.05185 16.0594 5.15506 16.1193 5.27737L9.59994 9.8387L3.08061 5.27737C3.14053 5.15506 3.23333 5.05185 3.34861 4.97932C3.46388 4.90679 3.59708 4.86779 3.73328 4.8667Z" fill="#59008F"/>
</svg>
