<svg width="16" height="16" viewBox="0 0 16 16" fill="none" xmlns="http://www.w3.org/2000/svg">
<path d="M14.7935 0.667267H1.74014C1.5262 0.667267 1.32102 0.752255 1.16974 0.903534C1.01846 1.05481 0.933472 1.25999 0.933472 1.47393V14.5273C0.933472 14.6332 0.954337 14.7381 0.994876 14.836C1.03541 14.9338 1.09483 15.0228 1.16974 15.0977C1.24464 15.1726 1.33357 15.232 1.43144 15.2725C1.52931 15.3131 1.63421 15.3339 1.74014 15.3339H8.76547V9.6506H6.85881V7.4506H8.76547V5.8006C8.72598 5.41322 8.77171 5.02189 8.89946 4.65406C9.02722 4.28623 9.2339 3.9508 9.50501 3.6713C9.77613 3.3918 10.1051 3.175 10.4689 3.03611C10.8326 2.89721 11.2224 2.83958 11.6108 2.86727C12.1816 2.86375 12.7521 2.89314 13.3195 2.95527V4.93527H12.1535C11.2295 4.93527 11.0535 5.37527 11.0535 6.01327V7.4286H13.2535L12.9675 9.6286H11.0535V15.3339H14.7935C14.8994 15.3339 15.0043 15.3131 15.1022 15.2725C15.2 15.232 15.289 15.1726 15.3639 15.0977C15.4388 15.0228 15.4982 14.9338 15.5387 14.836C15.5793 14.7381 15.6001 14.6332 15.6001 14.5273V1.47393C15.6001 1.368 15.5793 1.2631 15.5387 1.16524C15.4982 1.06737 15.4388 0.97844 15.3639 0.903534C15.289 0.828628 15.2 0.76921 15.1022 0.728671C15.0043 0.688132 14.8994 0.667267 14.7935 0.667267Z" fill="#6153FF"/>
</svg>
