<svg width="51" height="51" viewBox="0 0 51 51" fill="none" xmlns="http://www.w3.org/2000/svg">
<rect x="0.880859" y="10.9219" width="40.6405" height="40.6405" rx="10.1601" transform="rotate(-15 0.880859 10.9219)" fill="#59008F"/>
<path d="M27.7491 17.655C27.9901 18.3353 27.953 19.0839 27.6444 19.7372C26.9343 21.2414 26.2744 22.7814 25.5088 24.2599C25.3321 24.5952 24.9124 24.734 24.5713 24.5698L20.0922 22.413C18.7384 21.761 18.1633 20.1379 18.8047 18.779C19.4524 17.4068 21.0937 16.8253 22.4608 17.4837L22.6236 17.562L22.7007 17.3987C23.0112 16.7405 23.5718 16.2328 24.2589 15.9893C24.9462 15.7458 25.7013 15.7874 26.3569 16.1033C27.0079 16.4166 27.5081 16.9748 27.7491 17.655Z" fill="#59008F" stroke="white" stroke-width="2" stroke-linejoin="round"/>
<path d="M35.5097 32.3725L38.3027 26.5142C38.3849 26.3419 38.3952 26.144 38.3314 25.964L36.2269 20.024C35.8949 19.087 34.8661 18.5965 33.9291 18.9285C32.9921 19.2605 32.5016 20.2893 32.8336 21.2263L34.637 26.3163" fill="#59008F"/>
<path d="M35.5097 32.3725L38.3027 26.5142C38.3849 26.3419 38.3952 26.144 38.3314 25.964L36.2269 20.024C35.8949 19.087 34.8661 18.5965 33.9291 18.9285C32.9921 19.2605 32.5016 20.2893 32.8336 21.2263L34.637 26.3163" stroke="white" stroke-width="2" stroke-linecap="round" stroke-linejoin="round"/>
<path d="M33.9068 27.8481L34.5335 26.5336C34.5999 26.3944 34.6082 26.2346 34.5567 26.0894C34.4832 25.8818 34.2987 25.7337 34.0802 25.7066L33.4905 25.6336C32.4654 25.5067 31.4739 26.0501 31.0293 26.9825L30.3758 28.3534C30.1018 28.928 30.0673 29.5878 30.2799 30.1878L31.551 33.7752" fill="#59008F"/>
<path d="M33.9068 27.8481L34.5335 26.5336C34.5999 26.3944 34.6082 26.2346 34.5567 26.0894C34.4832 25.8818 34.2987 25.7337 34.0802 25.7066L33.4905 25.6336C32.4654 25.5067 31.4739 26.0501 31.0293 26.9825L30.3758 28.3534C30.1018 28.928 30.0673 29.5878 30.2799 30.1878L31.551 33.7752" stroke="white" stroke-width="2" stroke-linecap="round" stroke-linejoin="round"/>
<path d="M21.9365 37.1816L16.0782 34.3885C15.9059 34.3064 15.7732 34.1591 15.7094 33.9792L13.6049 28.0392C13.2729 27.1021 13.7633 26.0734 14.7004 25.7414C15.6374 25.4094 16.6662 25.8999 16.9982 26.8369L18.8016 31.9269" fill="#59008F"/>
<path d="M21.9365 37.1816L16.0782 34.3885C15.9059 34.3064 15.7732 34.1591 15.7094 33.9792L13.6049 28.0392C13.2729 27.1021 13.7633 26.0734 14.7004 25.7414C15.6374 25.4094 16.6662 25.8999 16.9982 26.8369L18.8016 31.9269" stroke="white" stroke-width="2" stroke-linecap="round" stroke-linejoin="round"/>
<path d="M20.3335 32.6571L19.019 32.0304C18.8798 31.964 18.7727 31.8451 18.7212 31.6999C18.6477 31.4923 18.6977 31.2611 18.8504 31.1025L19.2627 30.6746C19.9793 29.9305 21.0917 29.7285 22.0241 30.1731L23.395 30.8266C23.9696 31.1006 24.4118 31.5916 24.6243 32.1915L25.8954 35.7789" fill="#59008F"/>
<path d="M20.3335 32.6571L19.019 32.0304C18.8798 31.964 18.7727 31.8451 18.7212 31.6999C18.6477 31.4923 18.6977 31.2611 18.8504 31.1025L19.2627 30.6746C19.9793 29.9305 21.0917 29.7285 22.0241 30.1731L23.395 30.8266C23.9696 31.1006 24.4118 31.5916 24.6243 32.1915L25.8954 35.7789" stroke="white" stroke-width="2" stroke-linecap="round" stroke-linejoin="round"/>
</svg>
