<svg width="51" height="51" viewBox="0 0 51 51" fill="none" xmlns="http://www.w3.org/2000/svg">
<rect x="0.584717" y="11.2269" width="40.6405" height="40.6405" rx="10.1601" transform="rotate(-15 0.584717 11.2269)" fill="#59008F"/>
<path d="M17.0537 34.9467L16.7768 33.7922C15.7062 29.329 18.4565 24.843 22.9198 23.7724" fill="#59008F"/>
<path d="M17.0537 34.9467L16.7768 33.7922C15.7062 29.329 18.4565 24.843 22.9198 23.7724" stroke="white" stroke-width="2" stroke-linecap="round" stroke-linejoin="round"/>
<path d="M30.8616 22.2502C31.4074 21.2589 32.6875 20.9519 33.6236 21.5877C34.0967 21.9091 34.6884 22.003 35.2377 21.8437C36.3246 21.5287 37.447 22.2168 37.6592 23.3283C37.7665 23.8901 38.1186 24.3748 38.6196 24.6507C39.6109 25.1965 39.918 26.4766 39.2821 27.4127C38.9607 27.8859 38.8669 28.4776 39.0261 29.0269C39.3411 30.1137 38.653 31.2361 37.5415 31.4484C36.9797 31.5557 36.495 31.9077 36.2191 32.4088C35.6733 33.4001 34.3932 33.7071 33.4571 33.0713C32.984 32.7499 32.3923 32.656 31.843 32.8153C30.7561 33.1303 29.6337 32.4422 29.4214 31.3307C29.3142 30.7689 28.9621 30.2841 28.4611 30.0083C27.4698 29.4625 27.1627 28.1824 27.7986 27.2463C28.12 26.7731 28.2138 26.1814 28.0546 25.6321C27.7396 24.5452 28.4277 23.4229 29.5392 23.2106C30.1009 23.1033 30.5857 22.7513 30.8616 22.2502Z" fill="#59008F" stroke="white" stroke-width="2"/>
<path d="M31.6511 27.7829L33.2128 28.7402L35.1275 25.6171" fill="#59008F"/>
<path d="M31.6511 27.7829L33.2128 28.7402L35.1275 25.6171" stroke="white" stroke-width="2" stroke-linecap="round" stroke-linejoin="round"/>
<path d="M22.9198 23.7724C25.4702 23.1607 27.0418 20.5972 26.4301 18.0468C25.8183 15.4964 23.2548 13.9248 20.7044 14.5365C18.154 15.1482 16.5824 17.7117 17.1942 20.2621C17.8059 22.8125 20.3693 24.3842 22.9198 23.7724Z" fill="#59008F" stroke="white" stroke-width="2" stroke-linecap="round" stroke-linejoin="round"/>
</svg>
