<svg width="115" height="115" viewBox="0 0 115 115" fill="none" xmlns="http://www.w3.org/2000/svg">
<g filter="url(#filter0_d_1_197)">
<circle cx="57.49" cy="39.3791" r="18.49" fill="#59008F"/>
</g>
<path d="M51.7734 45.7964V32.9617C51.7734 32.4074 52.3855 32.0734 52.8514 32.3713L62.8836 38.7886C63.3152 39.0649 63.3152 39.6933 62.8836 39.9695L52.8514 46.3868C52.3855 46.6848 51.7734 46.3507 51.7734 45.7964Z" fill="white"/>
<path d="M52.0442 45.7964C52.0442 45.5436 52.0442 45.289 52.0442 45.0362C52.0442 44.3916 52.0442 43.7469 52.0442 43.1023C52.0442 42.2266 52.0442 41.3508 52.0442 40.4769C52.0442 39.5379 52.0442 38.599 52.0442 37.6583C52.0442 36.8204 52.0442 35.9826 52.0442 35.143C52.0442 34.5706 52.0442 34 52.0442 33.4276C52.0442 33.294 52.0442 33.1585 52.0442 33.0249C52.0442 33.0051 52.0442 32.9834 52.0442 32.9635C52.0442 32.9545 52.0442 32.9509 52.0442 32.9383C52.0442 32.922 52.046 32.9076 52.0478 32.8913C52.0442 32.9491 52.046 32.9003 52.0496 32.8841C52.0586 32.8516 52.0676 32.8191 52.0767 32.7884C52.0586 32.8425 52.0713 32.7974 52.0803 32.783C52.0929 32.7613 52.1038 32.7396 52.1182 32.718C52.1254 32.7053 52.1345 32.6945 52.1417 32.6837C52.1092 32.7288 52.1308 32.6981 52.1399 32.6891C52.1652 32.6638 52.1886 32.6403 52.2157 32.6168C52.1724 32.6548 52.2049 32.6241 52.2193 32.615C52.2338 32.606 52.2482 32.597 52.2645 32.588C52.2771 32.5807 52.2897 32.5753 52.3024 32.5681C52.3547 32.5392 52.2627 32.5789 52.315 32.5627C52.3493 32.5536 52.3818 32.5428 52.4161 32.5356C52.4775 32.5193 52.38 32.5302 52.4179 32.5356C52.4342 32.5374 52.4541 32.5338 52.4703 32.5338C52.4848 32.5338 52.4992 32.5338 52.5136 32.5356C52.5173 32.5356 52.5841 32.5482 52.5425 32.5374C52.4992 32.5266 52.5696 32.5446 52.5714 32.5446C52.5931 32.55 52.6148 32.5573 52.6346 32.5645C52.6816 32.5789 52.6437 32.5681 52.6328 32.5627C52.6545 32.5735 52.6744 32.5843 52.6942 32.5952C52.7014 32.5988 52.7087 32.6042 52.7141 32.6078C52.7159 32.6096 52.7177 32.6096 52.7195 32.6114C52.7448 32.6277 52.7719 32.6439 52.7971 32.6602C52.9326 32.7468 53.0662 32.8317 53.2016 32.9184C53.7271 33.2542 54.2543 33.5919 54.7798 33.9278C55.5201 34.4026 56.2622 34.8757 57.0025 35.3506C57.788 35.8526 58.5735 36.3564 59.3607 36.8583C60.0378 37.2917 60.7132 37.7233 61.3903 38.1566C61.7929 38.4148 62.1956 38.673 62.6001 38.9294C62.6398 38.9547 62.6777 38.98 62.7174 39.0035C62.7265 39.0089 62.7355 39.0143 62.7445 39.0197C62.7463 39.0197 62.7481 39.0215 62.7481 39.0215C62.7608 39.0306 62.7752 39.0396 62.7879 39.0486C62.7463 39.0161 62.7861 39.0486 62.7951 39.0576C62.8131 39.0775 62.8312 39.0956 62.8493 39.1136C62.8601 39.1245 62.8709 39.1533 62.8475 39.1118C62.8547 39.1245 62.8637 39.1353 62.8709 39.1479C62.8818 39.166 62.8908 39.1858 62.9016 39.2057C62.9088 39.2202 62.9143 39.2508 62.8998 39.2003C62.9107 39.2346 62.9215 39.2671 62.9305 39.3032C62.9341 39.3177 62.9359 39.3303 62.9377 39.3447C62.9269 39.2761 62.9359 39.3411 62.9359 39.3574C62.9359 39.3772 62.9269 39.4838 62.9377 39.4116C62.9323 39.4459 62.9251 39.482 62.9143 39.5145C62.9107 39.5289 62.9052 39.5416 62.8998 39.5542C62.9179 39.4982 62.9052 39.5434 62.8962 39.5578C62.8872 39.5741 62.88 39.5903 62.8691 39.6048C62.8637 39.612 62.8222 39.6698 62.8601 39.621C62.8366 39.6499 62.8095 39.6752 62.7824 39.7023C62.7752 39.7095 62.7427 39.7348 62.7824 39.7041C62.768 39.7149 62.759 39.7203 62.7427 39.7312C62.7409 39.7312 62.7409 39.733 62.7391 39.733C62.7319 39.7384 62.7229 39.7438 62.7156 39.7474C62.4087 39.9442 62.1017 40.1392 61.7948 40.3361C61.1754 40.7315 60.5561 41.1287 59.9367 41.5242C59.1585 42.0207 58.3821 42.5191 57.6038 43.0157C56.84 43.505 56.0744 43.9943 55.3106 44.4837C54.7129 44.8665 54.1153 45.2493 53.5176 45.6303C53.2504 45.8018 52.9849 45.9751 52.7159 46.1431C52.687 46.1611 52.6581 46.1774 52.6274 46.1936C52.6725 46.1701 52.64 46.1882 52.6292 46.1918C52.6112 46.1972 52.5931 46.2026 52.575 46.2081C52.557 46.2135 52.5389 46.2153 52.5209 46.2207C52.5696 46.2063 52.548 46.2189 52.5281 46.2189C52.492 46.2207 52.4577 46.2207 52.4216 46.2189C52.371 46.2171 52.4198 46.2189 52.4306 46.2207C52.4107 46.2171 52.3891 46.2135 52.3692 46.2081C52.3511 46.2045 52.2735 46.1756 52.3024 46.1882C52.3313 46.2008 52.2554 46.1629 52.241 46.1539C52.2265 46.1449 52.2121 46.1322 52.1977 46.125C52.1633 46.1088 52.2392 46.1665 52.194 46.1214C52.1688 46.0961 52.1435 46.0726 52.12 46.0456C52.1579 46.0871 52.1128 46.0329 52.1002 46.0149C52.0893 45.9968 52.0803 45.9769 52.0695 45.9589C52.0622 45.9444 52.0586 45.9155 52.0713 45.9643C52.0622 45.9282 52.0496 45.8939 52.0406 45.8578C52.037 45.8433 52.0388 45.809 52.0406 45.8614C52.046 45.8433 52.0442 45.8198 52.0442 45.7964C52.0424 45.6555 51.9214 45.5183 51.7733 45.5255C51.6289 45.5327 51.5007 45.6447 51.5025 45.7964C51.5079 46.1539 51.7029 46.4988 52.0297 46.6595C52.3385 46.8112 52.696 46.8021 52.9903 46.6198C53.0572 46.5782 53.124 46.5349 53.189 46.4916C53.6277 46.2117 54.0665 45.93 54.5053 45.6501C55.2113 45.1987 55.9173 44.7473 56.6233 44.2959C57.4232 43.7831 58.225 43.2721 59.0249 42.7592C59.7544 42.2934 60.4838 41.8257 61.2133 41.3599C61.7045 41.0457 62.1974 40.7315 62.6886 40.4155C62.7915 40.3505 62.8944 40.2837 62.9973 40.2187C63.0948 40.1555 63.1869 40.0833 63.2591 39.9912C63.4957 39.6932 63.539 39.2978 63.3783 38.9529C63.279 38.7416 63.1021 38.608 62.9143 38.4871C62.7698 38.395 62.6236 38.3011 62.4791 38.209C61.9284 37.8569 61.3776 37.5048 60.8287 37.1527C60.0703 36.6669 59.3102 36.1812 58.5518 35.6955C57.7537 35.1863 56.9574 34.6753 56.1593 34.1661C55.493 33.74 54.8267 33.3138 54.1604 32.8877C53.7957 32.6548 53.4327 32.4218 53.068 32.1889C52.8206 32.03 52.5461 31.9487 52.25 32.0156C51.7932 32.1185 51.5025 32.5392 51.5007 32.9942C51.5007 33.3463 51.5007 33.6966 51.5007 34.0487C51.5007 34.771 51.5007 35.4933 51.5007 36.2155C51.5007 37.1328 51.5007 38.0483 51.5007 38.9656C51.5007 39.9063 51.5007 40.8489 51.5007 41.7896C51.5007 42.5859 51.5007 43.3822 51.5007 44.1803C51.5007 44.657 51.5007 45.1319 51.5007 45.6086C51.5007 45.6718 51.5007 45.735 51.5007 45.8C51.5007 45.9408 51.6253 46.0781 51.7715 46.0708C51.9196 46.06 52.0442 45.948 52.0442 45.7964Z" fill="white"/>
<defs>
<filter id="filter0_d_1_197" x="0.479198" y="0.85828" width="114.022" height="114.022" filterUnits="userSpaceOnUse" color-interpolation-filters="sRGB">
<feFlood flood-opacity="0" result="BackgroundImageFix"/>
<feColorMatrix in="SourceAlpha" type="matrix" values="0 0 0 0 0 0 0 0 0 0 0 0 0 0 0 0 0 0 127 0" result="hardAlpha"/>
<feOffset dy="18.49"/>
<feGaussianBlur stdDeviation="19.2604"/>
<feComposite in2="hardAlpha" operator="out"/>
<feColorMatrix type="matrix" values="0 0 0 0 0 0 0 0 0 0 0 0 0 0 0 0 0 0 0.15 0"/>
<feBlend mode="normal" in2="BackgroundImageFix" result="effect1_dropShadow_1_197"/>
<feBlend mode="normal" in="SourceGraphic" in2="effect1_dropShadow_1_197" result="shape"/>
</filter>
</defs>
</svg>
