<svg width="17" height="18" viewBox="0 0 17 18" fill="none" xmlns="http://www.w3.org/2000/svg">
<path d="M10.9112 11.5925L11.6143 13.2005C11.6143 13.2005 14.7782 13.9145 14.7782 15.6126C14.7782 16.8186 13.372 16.8186 13.372 16.8186H9.62224L7.77664 15.7292" stroke="#59008F" stroke-width="1.6" stroke-linecap="round" stroke-linejoin="round"/>
<path d="M6.69361 11.5925L5.99053 13.2005C5.99053 13.2005 2.82666 13.9145 2.82666 15.6126C2.82666 16.8186 4.23282 16.8186 4.23282 16.8186H5.93194L7.77756 15.7292L10.0333 14.204" stroke="#59008F" stroke-width="1.6" stroke-linecap="round" stroke-linejoin="round"/>
<path d="M1.4198 12.3972C1.4198 12.3972 3.17751 11.9953 4.23213 11.5932C5.28676 5.96512 8.45061 6.36712 8.80218 6.36712C9.15374 6.36712 12.3176 5.96512 13.3722 11.5932C14.4268 11.9953 16.1846 12.3972 16.1846 12.3972" stroke="#59008F" stroke-width="1.6" stroke-linecap="round" stroke-linejoin="round"/>
<path d="M8.80154 4.61634C9.7076 4.61634 10.4421 3.83594 10.4421 2.87327C10.4421 1.91059 9.7076 1.13019 8.80154 1.13019C7.89547 1.13019 7.16101 1.91059 7.16101 2.87327C7.16101 3.83594 7.89547 4.61634 8.80154 4.61634Z" stroke="#59008F" stroke-width="1.6" stroke-linecap="round" stroke-linejoin="round"/>
</svg>
