<svg width="16" height="17" viewBox="0 0 16 17" fill="none" xmlns="http://www.w3.org/2000/svg">
<path d="M7.82995 6.39994L7.71962 6.35091H7.51884H7.37504L7.23592 6.66394L7.23508 6.66582L7.82995 6.39994ZM7.82995 6.39994L7.58836 6.50731L7.76624 6.90758L7.82995 6.39994ZM7.57109 7.05091L7.23508 6.90157L7.14759 6.86269L7.06394 7.05091H7.57109ZM7.57109 7.05091H7.23508V7.43603M7.57109 7.05091L7.23508 7.43603M7.23508 7.43603L7.23591 7.43789L7.23508 7.43603ZM7.72482 7.2875L7.58836 7.59454L7.72482 7.2875ZM7.72482 7.2875V7.65518V7.74863V7.75091V7.2875ZM7.82995 6.39994L7.71964 6.35091L7.82995 6.39994Z" fill="black" stroke="#59008F" stroke-width="1.4"/>
<path d="M0.691521 12.2939V4.18774C0.691521 3.99968 0.802277 3.82925 0.974138 3.75287L7.63663 0.791749C7.75973 0.73706 7.90012 0.73706 8.02322 0.791749L14.6857 3.75287C14.8576 3.82925 14.9683 3.99968 14.9683 4.18774V12.2939C14.9683 12.482 14.8576 12.6524 14.6857 12.7288L8.02322 15.6899C7.90012 15.7446 7.75973 15.7446 7.63663 15.6899L0.974138 12.7288C0.802277 12.6524 0.691521 12.482 0.691521 12.2939Z" stroke="#59008F" stroke-width="1.4" stroke-linecap="round" stroke-linejoin="round"/>
<path d="M4.26073 2.29211L11.1165 5.33913C11.2884 5.41552 11.3991 5.58594 11.3991 5.77401V8.63736" stroke="#59008F" stroke-width="1.4" stroke-linecap="round" stroke-linejoin="round"/>
</svg>
