<svg width="19" height="19" viewBox="0 0 19 19" fill="none" xmlns="http://www.w3.org/2000/svg">
<path d="M7.92333 1.30443C8.59572 0.566165 9.75728 0.566165 10.4297 1.30443L11.2943 2.25381C11.634 2.62693 12.1224 2.82923 12.6266 2.80567L13.9093 2.74573C14.9067 2.69911 15.7281 3.52051 15.6815 4.51798L15.6215 5.80065C15.598 6.30476 15.8003 6.79315 16.1734 7.13295L17.1228 7.99754C17.8611 8.66994 17.8611 9.8315 17.1228 10.5039L16.1734 11.3685C15.8003 11.7083 15.598 12.1967 15.6215 12.7008L15.6815 13.9835C15.7281 14.9809 14.9067 15.8024 13.9093 15.7558L12.6266 15.6958C12.1224 15.6722 11.634 15.8745 11.2943 16.2476L10.4297 17.197C9.75728 17.9353 8.59572 17.9353 7.92333 17.197L7.05873 16.2476C6.71893 15.8745 6.23054 15.6722 5.72643 15.6958L4.44375 15.7558C3.44629 15.8024 2.62489 14.9809 2.67151 13.9835L2.73145 12.7008C2.75501 12.1967 2.55271 11.7083 2.17959 11.3685L1.23022 10.5039C0.491946 9.8315 0.491946 8.66994 1.23022 7.99754L2.17959 7.13295C2.55271 6.79315 2.75501 6.30476 2.73145 5.80065L2.67151 4.51797C2.62489 3.52051 3.44629 2.69911 4.44376 2.74573L5.72643 2.80567C6.23054 2.82923 6.71893 2.62693 7.05873 2.25381L7.92333 1.30443Z" stroke="#59008F" stroke-width="1.4"/>
<path d="M6.63406 9.25097L8.32903 10.9459L11.719 7.556" stroke="#59008F" stroke-width="1.4" stroke-linecap="round" stroke-linejoin="round"/>
</svg>
