<svg width="17" height="17" viewBox="0 0 17 17" fill="none" xmlns="http://www.w3.org/2000/svg">
<path d="M12.1381 15.8585H1.32122C1.03152 15.8585 0.796661 15.6237 0.796661 15.334V6.76609C0.796661 6.47639 1.03152 6.24153 1.32122 6.24153H3.74088C4.35508 6.24153 4.92424 5.91927 5.24024 5.3926L7.60987 1.44318C8.12123 0.591002 9.32554 0.509992 9.94636 1.28603C10.239 1.65182 10.3333 2.138 10.1987 2.58669L9.30482 5.56623C9.20384 5.9028 9.45589 6.24153 9.80726 6.24153H13.8071C14.9601 6.24153 15.7974 7.33787 15.4941 8.45012L13.825 14.57C13.6175 15.3308 12.9266 15.8585 12.1381 15.8585Z" stroke="#59008F" stroke-width="1.4" stroke-linecap="round"/>
<path d="M3.85662 15.8584V6.24139" stroke="#59008F" stroke-width="1.4" stroke-linecap="round" stroke-linejoin="round"/>
</svg>
