<svg width="16" height="16" viewBox="0 0 16 16" fill="none" xmlns="http://www.w3.org/2000/svg">
<path d="M12.1161 3.20452C11.942 3.20452 11.7719 3.25614 11.6272 3.35283C11.4825 3.44953 11.3697 3.58696 11.3031 3.74776C11.2365 3.90856 11.219 4.0855 11.253 4.2562C11.287 4.42691 11.3708 4.58371 11.4938 4.70678C11.6169 4.82985 11.7737 4.91366 11.9444 4.94762C12.1151 4.98157 12.2921 4.96414 12.4529 4.89754C12.6137 4.83093 12.7511 4.71814 12.8478 4.57343C12.9445 4.42871 12.9961 4.25857 12.9961 4.08452C12.9961 3.85113 12.9034 3.6273 12.7383 3.46227C12.5733 3.29724 12.3495 3.20452 12.1161 3.20452ZM15.4894 4.97919C15.4752 4.37074 15.3612 3.76875 15.1521 3.19719C14.9656 2.70815 14.6754 2.26533 14.3014 1.89919C13.9383 1.5233 13.4944 1.23492 13.0034 1.05586C12.4334 0.840375 11.8307 0.723811 11.2214 0.711191C10.4441 0.667191 10.1948 0.667191 8.20009 0.667191C6.20543 0.667191 5.95609 0.667191 5.17876 0.711191C4.56947 0.723811 3.96681 0.840375 3.39676 1.05586C2.90666 1.23673 2.46318 1.52487 2.09876 1.89919C1.72287 2.26232 1.43449 2.70618 1.25543 3.19719C1.03994 3.76724 0.923381 4.3699 0.91076 4.97919C0.86676 5.75652 0.86676 6.00586 0.86676 8.00052C0.86676 9.99519 0.86676 10.2445 0.91076 11.0219C0.923381 11.6311 1.03994 12.2338 1.25543 12.8039C1.43449 13.2949 1.72287 13.7387 2.09876 14.1019C2.46318 14.4762 2.90666 14.7643 3.39676 14.9452C3.96681 15.1607 4.56947 15.2772 5.17876 15.2899C5.95609 15.3339 6.20543 15.3339 8.20009 15.3339C10.1948 15.3339 10.4441 15.3339 11.2214 15.2899C11.8307 15.2772 12.4334 15.1607 13.0034 14.9452C13.4944 14.7661 13.9383 14.4777 14.3014 14.1019C14.6771 13.7371 14.9675 13.2939 15.1521 12.8039C15.3612 12.2323 15.4752 11.6303 15.4894 11.0219C15.4894 10.2445 15.5334 9.99519 15.5334 8.00052C15.5334 6.00586 15.5334 5.75652 15.4894 4.97919ZM14.1694 10.9339C14.1641 11.3994 14.0798 11.8606 13.9201 12.2979C13.803 12.617 13.6149 12.9054 13.3701 13.1412C13.1322 13.3836 12.8445 13.5712 12.5268 13.6912C12.0895 13.8509 11.6283 13.9352 11.1628 13.9405C10.4294 13.9772 10.1581 13.9845 8.22943 13.9845C6.30076 13.9845 6.02943 13.9845 5.29609 13.9405C4.81275 13.9496 4.33146 13.8751 3.87343 13.7205C3.56967 13.5944 3.29509 13.4072 3.06676 13.1705C2.82336 12.9349 2.63765 12.6463 2.52409 12.3272C2.34505 11.8836 2.24575 11.4119 2.23076 10.9339C2.23076 10.2005 2.18676 9.92919 2.18676 8.00052C2.18676 6.07186 2.18676 5.80052 2.23076 5.06719C2.23405 4.5913 2.32092 4.11968 2.48743 3.67386C2.61653 3.36433 2.81469 3.08841 3.06676 2.86719C3.28956 2.61505 3.5649 2.41479 3.87343 2.28052C4.32043 2.11922 4.79156 2.03492 5.26676 2.03119C6.00009 2.03119 6.27143 1.98719 8.20009 1.98719C10.1288 1.98719 10.4001 1.98719 11.1334 2.03119C11.5989 2.03653 12.0601 2.12084 12.4974 2.28052C12.8307 2.4042 13.1298 2.60528 13.3701 2.86719C13.6104 3.09245 13.7982 3.36786 13.9201 3.67386C14.0831 4.12041 14.1674 4.59183 14.1694 5.06719C14.2061 5.80052 14.2134 6.07186 14.2134 8.00052C14.2134 9.92919 14.2061 10.2005 14.1694 10.9339ZM8.20009 4.23852C7.45635 4.23997 6.72973 4.46184 6.11204 4.8761C5.49435 5.29035 5.0133 5.8784 4.72969 6.56594C4.44608 7.25349 4.37262 8.00967 4.51861 8.73894C4.66459 9.46821 5.02347 10.1378 5.54988 10.6632C6.0763 11.1886 6.74663 11.5462 7.47619 11.6908C8.20575 11.8353 8.96178 11.7604 9.64877 11.4755C10.3358 11.1905 10.9229 10.7083 11.3359 10.0898C11.749 9.47132 11.9694 8.74426 11.9694 8.00052C11.9704 7.5056 11.8735 7.01537 11.6843 6.55803C11.4952 6.10068 11.2174 5.68525 10.8671 5.33563C10.5168 4.986 10.1009 4.70909 9.64315 4.52081C9.18543 4.33252 8.69501 4.23659 8.20009 4.23852ZM8.20009 10.4425C7.71711 10.4425 7.24498 10.2993 6.84339 10.031C6.44181 9.76264 6.12881 9.38125 5.94398 8.93504C5.75915 8.48882 5.71079 7.99782 5.80502 7.52411C5.89924 7.05041 6.13182 6.61529 6.47334 6.27377C6.81486 5.93225 7.24998 5.69967 7.72368 5.60545C8.19738 5.51122 8.68839 5.55958 9.13461 5.74441C9.58082 5.92924 9.96221 6.24224 10.2305 6.64382C10.4989 7.04541 10.6421 7.51754 10.6421 8.00052C10.6421 8.32121 10.5789 8.63876 10.4562 8.93504C10.3335 9.23131 10.1536 9.50052 9.92685 9.72728C9.70009 9.95404 9.43088 10.1339 9.13461 10.2566C8.83833 10.3794 8.52078 10.4425 8.20009 10.4425Z" fill="#FF2DEA"/>
</svg>
