<svg width="17" height="17" viewBox="0 0 17 17" fill="none" xmlns="http://www.w3.org/2000/svg">
<path d="M15.0664 0.187439H1.56664C0.920192 0.187439 0.39624 0.695375 0.39624 1.32229V14.8921C0.39624 15.519 0.920368 16.0274 1.56664 16.0274H15.0664C15.7128 16.0274 16.2361 15.5188 16.2361 14.8921V1.32229C16.2361 0.695551 15.7128 0.187439 15.0664 0.187439ZM5.1984 13.4466H2.80515V6.29499H5.1984V13.4466ZM4.00195 5.31801H3.98594C3.18338 5.31801 2.66312 4.76907 2.66312 4.08197C2.66312 3.38096 3.19869 2.84697 4.01709 2.84697C4.83566 2.84697 5.3392 3.38078 5.35504 4.08197C5.35504 4.76925 4.83584 5.31801 4.00195 5.31801ZM13.8256 13.4466H11.433V9.62033C11.433 8.65867 11.0863 8.00272 10.2211 8.00272C9.55915 8.00272 9.16632 8.44536 8.99384 8.87251C8.92978 9.02528 8.91411 9.23859 8.91411 9.4519V13.4464H6.52192C6.52192 13.4464 6.55325 6.96555 6.52192 6.29481H8.91429V7.30875C9.23197 6.82158 9.79939 6.12656 11.0701 6.12656C12.6448 6.12656 13.8256 7.14806 13.8256 9.34577V13.4466ZM8.8988 7.33145C8.90302 7.32477 8.90866 7.31667 8.91429 7.30893V7.33145H8.8988Z" fill="#7D9AFF"/>
</svg>
