<svg width="17" height="14" viewBox="0 0 17 14" fill="none" xmlns="http://www.w3.org/2000/svg">
<path d="M16.446 1.96465C15.8479 2.22934 15.2085 2.40809 14.5347 2.49059C15.2222 2.07809 15.7516 1.42496 15.9991 0.648089C15.3563 1.02965 14.6447 1.30809 13.8851 1.4559C13.2766 0.806214 12.4104 0.400589 11.4547 0.400589C9.61568 0.400589 8.12724 1.89246 8.12724 3.73153C8.12724 3.99278 8.15474 4.24715 8.21318 4.49121C5.44599 4.35371 2.99161 3.02684 1.35193 1.00903C1.06661 1.50059 0.901614 2.07465 0.901614 2.68309C0.901614 3.83809 1.49286 4.85903 2.38661 5.45715C1.83661 5.4434 1.32099 5.29215 0.874114 5.04121V5.08246C0.874114 6.69809 2.02224 8.04215 3.54505 8.34809C3.26661 8.42371 2.97099 8.46496 2.66849 8.46496C2.45536 8.46496 2.24568 8.44434 2.04286 8.40309C2.46568 9.72653 3.6963 10.689 5.1538 10.7165C4.01599 11.6103 2.57911 12.1431 1.01849 12.1431C0.750364 12.1431 0.485676 12.1259 0.224426 12.095C1.69224 13.0506 3.44193 13.6006 5.3188 13.6006C11.4479 13.6006 14.796 8.5234 14.796 4.11996C14.796 3.97559 14.7926 3.83121 14.7857 3.69028C15.4354 3.21934 15.9991 2.63496 16.446 1.96465Z" fill="#5AC1C8"/>
</svg>
