<svg width="16" height="16" viewBox="0 0 16 16" fill="none" xmlns="http://www.w3.org/2000/svg">
<path d="M13.2559 9.00006C13.0946 9.00006 12.9259 8.94873 12.7646 8.91206C12.4379 8.84007 12.1168 8.74448 11.8039 8.62606C11.4637 8.5023 11.0898 8.50872 10.754 8.64411C10.4183 8.77949 10.1444 9.03426 9.98525 9.35939L9.82392 9.68939C9.10965 9.29206 8.45331 8.79856 7.87325 8.22273C7.29742 7.64267 6.80392 6.98632 6.40659 6.27206L6.71459 6.06673C7.03972 5.90753 7.29449 5.63372 7.42987 5.29797C7.56526 4.96222 7.57168 4.58826 7.44792 4.24806C7.33148 3.9345 7.23594 3.61358 7.16192 3.28739C7.12525 3.12606 7.09592 2.95739 7.07392 2.78873C6.98487 2.27218 6.71431 1.8044 6.31097 1.46964C5.90764 1.13487 5.39803 0.955106 4.87392 0.962727H2.67392C2.35787 0.959759 2.0449 1.02492 1.75631 1.15378C1.46771 1.28264 1.21027 1.47217 1.0015 1.70947C0.792735 1.94676 0.63755 2.22626 0.54651 2.52892C0.455469 2.83158 0.43071 3.1503 0.473918 3.46339C0.864593 6.53561 2.26767 9.3901 4.46153 11.576C6.65539 13.7619 9.51497 15.1546 12.5886 15.5341H12.8673C13.408 15.5349 13.9301 15.3364 14.3339 14.9767C14.5659 14.7692 14.7512 14.5149 14.8777 14.2304C15.0041 13.946 15.0687 13.638 15.0673 13.3267V11.1267C15.0583 10.6173 14.8728 10.1269 14.5424 9.73902C14.2121 9.35117 13.7574 9.08999 13.2559 9.00006V9.00006ZM13.6226 13.4001C13.6225 13.5042 13.6001 13.6071 13.5572 13.7019C13.5142 13.7967 13.4515 13.8813 13.3733 13.9501C13.2913 14.0208 13.1955 14.0737 13.0919 14.1052C12.9884 14.1368 12.8794 14.1464 12.7719 14.1334C10.0255 13.7813 7.47449 12.5248 5.52124 10.5623C3.568 8.59973 2.32369 6.04277 1.98459 3.29473C1.97291 3.18731 1.98314 3.07864 2.01465 2.97528C2.04616 2.87192 2.0983 2.77603 2.16792 2.69339C2.23664 2.61517 2.32123 2.55248 2.41606 2.50949C2.5109 2.4665 2.6138 2.44419 2.71792 2.44406H4.91792C5.08845 2.44027 5.25497 2.49604 5.38882 2.60178C5.52267 2.70752 5.61547 2.85661 5.65125 3.02339C5.68058 3.22384 5.71725 3.42184 5.76125 3.61739C5.84597 4.00397 5.95871 4.38386 6.09858 4.75406L5.07192 5.23073C4.98414 5.271 4.90517 5.32822 4.83957 5.3991C4.77396 5.46997 4.723 5.55311 4.68961 5.64374C4.65622 5.73436 4.64106 5.83069 4.64501 5.92719C4.64895 6.02369 4.67191 6.11846 4.71258 6.20606C5.768 8.46675 7.58523 10.284 9.84592 11.3394C10.0245 11.4127 10.2247 11.4127 10.4033 11.3394C10.4947 11.3067 10.5788 11.2561 10.6505 11.1907C10.7223 11.1252 10.7803 11.0461 10.8213 10.9581L11.2759 9.93139C11.655 10.067 12.0419 10.1796 12.4346 10.2687C12.6301 10.3127 12.8281 10.3494 13.0286 10.3787C13.1954 10.4145 13.3445 10.5073 13.4502 10.6412C13.5559 10.775 13.6117 10.9415 13.6079 11.1121L13.6226 13.4001Z" fill="#59008F"/>
</svg>
